<svg width="126" height="126" viewBox="0 0 126 126" fill="none" xmlns="http://www.w3.org/2000/svg">
<circle cx="63" cy="63" r="63" fill="#000458"/>
<path d="M37.8538 95.51C37.8538 94.83 38.0072 94.22 38.3138 93.68C38.6205 93.1333 39.0372 92.7067 39.5638 92.4C40.0972 92.0933 40.6872 91.94 41.3338 91.94C42.0938 91.94 42.7572 92.1233 43.3238 92.49C43.8905 92.8567 44.3038 93.3767 44.5638 94.05H43.4738C43.2805 93.63 43.0005 93.3067 42.6338 93.08C42.2738 92.8533 41.8405 92.74 41.3338 92.74C40.8472 92.74 40.4105 92.8533 40.0238 93.08C39.6372 93.3067 39.3338 93.63 39.1138 94.05C38.8938 94.4633 38.7838 94.95 38.7838 95.51C38.7838 96.0633 38.8938 96.55 39.1138 96.97C39.3338 97.3833 39.6372 97.7033 40.0238 97.93C40.4105 98.1567 40.8472 98.27 41.3338 98.27C41.8405 98.27 42.2738 98.16 42.6338 97.94C43.0005 97.7133 43.2805 97.39 43.4738 96.97H44.5638C44.3038 97.6367 43.8905 98.1533 43.3238 98.52C42.7572 98.88 42.0938 99.06 41.3338 99.06C40.6872 99.06 40.0972 98.91 39.5638 98.61C39.0372 98.3033 38.6205 97.88 38.3138 97.34C38.0072 96.8 37.8538 96.19 37.8538 95.51ZM48.3084 99.09C47.7951 99.09 47.3284 98.9733 46.9084 98.74C46.4951 98.5067 46.1684 98.1767 45.9284 97.75C45.6951 97.3167 45.5784 96.8167 45.5784 96.25C45.5784 95.69 45.6984 95.1967 45.9384 94.77C46.1851 94.3367 46.5184 94.0067 46.9384 93.78C47.3584 93.5467 47.8284 93.43 48.3484 93.43C48.8684 93.43 49.3384 93.5467 49.7584 93.78C50.1784 94.0067 50.5084 94.3333 50.7484 94.76C50.9951 95.1867 51.1184 95.6833 51.1184 96.25C51.1184 96.8167 50.9918 97.3167 50.7384 97.75C50.4918 98.1767 50.1551 98.5067 49.7284 98.74C49.3018 98.9733 48.8284 99.09 48.3084 99.09ZM48.3084 98.29C48.6351 98.29 48.9418 98.2133 49.2284 98.06C49.5151 97.9067 49.7451 97.6767 49.9184 97.37C50.0984 97.0633 50.1884 96.69 50.1884 96.25C50.1884 95.81 50.1018 95.4367 49.9284 95.13C49.7551 94.8233 49.5284 94.5967 49.2484 94.45C48.9684 94.2967 48.6651 94.22 48.3384 94.22C48.0051 94.22 47.6984 94.2967 47.4184 94.45C47.1451 94.5967 46.9251 94.8233 46.7584 95.13C46.5918 95.4367 46.5084 95.81 46.5084 96.25C46.5084 96.6967 46.5884 97.0733 46.7484 97.38C46.9151 97.6867 47.1351 97.9167 47.4084 98.07C47.6818 98.2167 47.9818 98.29 48.3084 98.29ZM58.9049 93.42C59.3316 93.42 59.7116 93.51 60.0449 93.69C60.3783 93.8633 60.6416 94.1267 60.8349 94.48C61.0283 94.8333 61.1249 95.2633 61.1249 95.77V99H60.2249V95.9C60.2249 95.3533 60.0883 94.9367 59.8149 94.65C59.5483 94.3567 59.1849 94.21 58.7249 94.21C58.2516 94.21 57.8749 94.3633 57.5949 94.67C57.3149 94.97 57.1749 95.4067 57.1749 95.98V99H56.2749V95.9C56.2749 95.3533 56.1383 94.9367 55.8649 94.65C55.5983 94.3567 55.2349 94.21 54.7749 94.21C54.3016 94.21 53.9249 94.3633 53.6449 94.67C53.3649 94.97 53.2249 95.4067 53.2249 95.98V99H52.3149V93.52H53.2249V94.31C53.4049 94.0233 53.6449 93.8033 53.9449 93.65C54.2516 93.4967 54.5883 93.42 54.9549 93.42C55.4149 93.42 55.8216 93.5233 56.1749 93.73C56.5283 93.9367 56.7916 94.24 56.9649 94.64C57.1183 94.2533 57.3716 93.9533 57.7249 93.74C58.0783 93.5267 58.4716 93.42 58.9049 93.42ZM63.5277 94.53C63.7077 94.2167 63.9743 93.9567 64.3277 93.75C64.6877 93.5367 65.1043 93.43 65.5777 93.43C66.0643 93.43 66.5043 93.5467 66.8977 93.78C67.2977 94.0133 67.611 94.3433 67.8377 94.77C68.0643 95.19 68.1777 95.68 68.1777 96.24C68.1777 96.7933 68.0643 97.2867 67.8377 97.72C67.611 98.1533 67.2977 98.49 66.8977 98.73C66.5043 98.97 66.0643 99.09 65.5777 99.09C65.111 99.09 64.6977 98.9867 64.3377 98.78C63.9843 98.5667 63.7143 98.3033 63.5277 97.99V101.6H62.6177V93.52H63.5277V94.53ZM67.2477 96.24C67.2477 95.8267 67.1643 95.4667 66.9977 95.16C66.831 94.8533 66.6043 94.62 66.3177 94.46C66.0377 94.3 65.7277 94.22 65.3877 94.22C65.0543 94.22 64.7443 94.3033 64.4577 94.47C64.1777 94.63 63.951 94.8667 63.7777 95.18C63.611 95.4867 63.5277 95.8433 63.5277 96.25C63.5277 96.6633 63.611 97.0267 63.7777 97.34C63.951 97.6467 64.1777 97.8833 64.4577 98.05C64.7443 98.21 65.0543 98.29 65.3877 98.29C65.7277 98.29 66.0377 98.21 66.3177 98.05C66.6043 97.8833 66.831 97.6467 66.9977 97.34C67.1643 97.0267 67.2477 96.66 67.2477 96.24ZM74.2355 93.52V99H73.3255V98.19C73.1521 98.47 72.9088 98.69 72.5955 98.85C72.2888 99.0033 71.9488 99.08 71.5755 99.08C71.1488 99.08 70.7655 98.9933 70.4255 98.82C70.0855 98.64 69.8155 98.3733 69.6155 98.02C69.4221 97.6667 69.3255 97.2367 69.3255 96.73V93.52H70.2255V96.61C70.2255 97.15 70.3621 97.5667 70.6355 97.86C70.9088 98.1467 71.2821 98.29 71.7555 98.29C72.2421 98.29 72.6255 98.14 72.9055 97.84C73.1855 97.54 73.3255 97.1033 73.3255 96.53V93.52H74.2355ZM76.882 94.27V97.5C76.882 97.7667 76.9386 97.9567 77.052 98.07C77.1653 98.1767 77.362 98.23 77.642 98.23H78.312V99H77.492C76.9853 99 76.6053 98.8833 76.352 98.65C76.0986 98.4167 75.972 98.0333 75.972 97.5V94.27H75.262V93.52H75.972V92.14H76.882V93.52H78.312V94.27H76.882ZM84.4145 96.05C84.4145 96.2233 84.4045 96.4067 84.3845 96.6H80.0045C80.0379 97.14 80.2212 97.5633 80.5545 97.87C80.8945 98.17 81.3045 98.32 81.7845 98.32C82.1779 98.32 82.5045 98.23 82.7645 98.05C83.0312 97.8633 83.2179 97.6167 83.3245 97.31H84.3045C84.1579 97.8367 83.8645 98.2667 83.4245 98.6C82.9845 98.9267 82.4379 99.09 81.7845 99.09C81.2645 99.09 80.7979 98.9733 80.3845 98.74C79.9779 98.5067 79.6579 98.1767 79.4245 97.75C79.1912 97.3167 79.0745 96.8167 79.0745 96.25C79.0745 95.6833 79.1879 95.1867 79.4145 94.76C79.6412 94.3333 79.9579 94.0067 80.3645 93.78C80.7779 93.5467 81.2512 93.43 81.7845 93.43C82.3045 93.43 82.7645 93.5433 83.1645 93.77C83.5645 93.9967 83.8712 94.31 84.0845 94.71C84.3045 95.1033 84.4145 95.55 84.4145 96.05ZM83.4745 95.86C83.4745 95.5133 83.3979 95.2167 83.2445 94.97C83.0912 94.7167 82.8812 94.5267 82.6145 94.4C82.3545 94.2667 82.0645 94.2 81.7445 94.2C81.2845 94.2 80.8912 94.3467 80.5645 94.64C80.2445 94.9333 80.0612 95.34 80.0145 95.86H83.4745ZM86.5257 94.41C86.6857 94.0967 86.9124 93.8533 87.2057 93.68C87.5057 93.5067 87.869 93.42 88.2957 93.42V94.36H88.0557C87.0357 94.36 86.5257 94.9133 86.5257 96.02V99H85.6157V93.52H86.5257V94.41ZM52.7769 114L51.1169 111.15H50.0169V114H49.1069V107.03H51.3569C51.8836 107.03 52.3269 107.12 52.6869 107.3C53.0536 107.48 53.3269 107.723 53.5069 108.03C53.6869 108.337 53.7769 108.687 53.7769 109.08C53.7769 109.56 53.6369 109.983 53.3569 110.35C53.0836 110.717 52.6702 110.96 52.1169 111.08L53.8669 114H52.7769ZM50.0169 110.42H51.3569C51.8502 110.42 52.2202 110.3 52.4669 110.06C52.7136 109.813 52.8369 109.487 52.8369 109.08C52.8369 108.667 52.7136 108.347 52.4669 108.12C52.2269 107.893 51.8569 107.78 51.3569 107.78H50.0169V110.42ZM60.1909 111.05C60.1909 111.223 60.1809 111.407 60.1609 111.6H55.7809C55.8142 112.14 55.9976 112.563 56.3309 112.87C56.6709 113.17 57.0809 113.32 57.5609 113.32C57.9542 113.32 58.2809 113.23 58.5409 113.05C58.8076 112.863 58.9942 112.617 59.1009 112.31H60.0809C59.9342 112.837 59.6409 113.267 59.2009 113.6C58.7609 113.927 58.2142 114.09 57.5609 114.09C57.0409 114.09 56.5742 113.973 56.1609 113.74C55.7542 113.507 55.4342 113.177 55.2009 112.75C54.9676 112.317 54.8509 111.817 54.8509 111.25C54.8509 110.683 54.9642 110.187 55.1909 109.76C55.4176 109.333 55.7342 109.007 56.1409 108.78C56.5542 108.547 57.0276 108.43 57.5609 108.43C58.0809 108.43 58.5409 108.543 58.9409 108.77C59.3409 108.997 59.6476 109.31 59.8609 109.71C60.0809 110.103 60.1909 110.55 60.1909 111.05ZM59.2509 110.86C59.2509 110.513 59.1742 110.217 59.0209 109.97C58.8676 109.717 58.6576 109.527 58.3909 109.4C58.1309 109.267 57.8409 109.2 57.5209 109.2C57.0609 109.2 56.6676 109.347 56.3409 109.64C56.0209 109.933 55.8376 110.34 55.7909 110.86H59.2509ZM62.3021 109.53C62.4821 109.217 62.7487 108.957 63.1021 108.75C63.4621 108.537 63.8787 108.43 64.3521 108.43C64.8387 108.43 65.2787 108.547 65.6721 108.78C66.0721 109.013 66.3854 109.343 66.6121 109.77C66.8387 110.19 66.9521 110.68 66.9521 111.24C66.9521 111.793 66.8387 112.287 66.6121 112.72C66.3854 113.153 66.0721 113.49 65.6721 113.73C65.2787 113.97 64.8387 114.09 64.3521 114.09C63.8854 114.09 63.4721 113.987 63.1121 113.78C62.7587 113.567 62.4887 113.303 62.3021 112.99V116.6H61.3921V108.52H62.3021V109.53ZM66.0221 111.24C66.0221 110.827 65.9387 110.467 65.7721 110.16C65.6054 109.853 65.3787 109.62 65.0921 109.46C64.8121 109.3 64.5021 109.22 64.1621 109.22C63.8287 109.22 63.5187 109.303 63.2321 109.47C62.9521 109.63 62.7254 109.867 62.5521 110.18C62.3854 110.487 62.3021 110.843 62.3021 111.25C62.3021 111.663 62.3854 112.027 62.5521 112.34C62.7254 112.647 62.9521 112.883 63.2321 113.05C63.5187 113.21 63.8287 113.29 64.1621 113.29C64.5021 113.29 64.8121 113.21 65.0921 113.05C65.3787 112.883 65.6054 112.647 65.7721 112.34C65.9387 112.027 66.0221 111.66 66.0221 111.24ZM67.8099 111.24C67.8099 110.68 67.9232 110.19 68.1499 109.77C68.3765 109.343 68.6865 109.013 69.0799 108.78C69.4799 108.547 69.9232 108.43 70.4099 108.43C70.8899 108.43 71.3065 108.533 71.6599 108.74C72.0132 108.947 72.2765 109.207 72.4499 109.52V108.52H73.3699V114H72.4499V112.98C72.2699 113.3 71.9999 113.567 71.6399 113.78C71.2865 113.987 70.8732 114.09 70.3999 114.09C69.9132 114.09 69.4732 113.97 69.0799 113.73C68.6865 113.49 68.3765 113.153 68.1499 112.72C67.9232 112.287 67.8099 111.793 67.8099 111.24ZM72.4499 111.25C72.4499 110.837 72.3665 110.477 72.1999 110.17C72.0332 109.863 71.8065 109.63 71.5199 109.47C71.2399 109.303 70.9299 109.22 70.5899 109.22C70.2499 109.22 69.9399 109.3 69.6599 109.46C69.3799 109.62 69.1565 109.853 68.9899 110.16C68.8232 110.467 68.7399 110.827 68.7399 111.24C68.7399 111.66 68.8232 112.027 68.9899 112.34C69.1565 112.647 69.3799 112.883 69.6599 113.05C69.9399 113.21 70.2499 113.29 70.5899 113.29C70.9299 113.29 71.2399 113.21 71.5199 113.05C71.8065 112.883 72.0332 112.647 72.1999 112.34C72.3665 112.027 72.4499 111.663 72.4499 111.25ZM75.3777 107.63C75.2044 107.63 75.0577 107.57 74.9377 107.45C74.8177 107.33 74.7577 107.183 74.7577 107.01C74.7577 106.837 74.8177 106.69 74.9377 106.57C75.0577 106.45 75.2044 106.39 75.3777 106.39C75.5444 106.39 75.6844 106.45 75.7977 106.57C75.9177 106.69 75.9777 106.837 75.9777 107.01C75.9777 107.183 75.9177 107.33 75.7977 107.45C75.6844 107.57 75.5444 107.63 75.3777 107.63ZM75.8177 108.52V114H74.9077V108.52H75.8177ZM78.2786 109.41C78.4386 109.097 78.6653 108.853 78.9586 108.68C79.2586 108.507 79.622 108.42 80.0486 108.42V109.36H79.8086C78.7886 109.36 78.2786 109.913 78.2786 111.02V114H77.3686V108.52H78.2786V109.41Z" fill="#FFE0E0"/>
<path d="M91.6922 18.9318H33.7742C31.1726 18.9318 29.0682 20.9917 29.0682 23.5382C29.0682 40.3677 29.0682 52.2174 29.0682 67.9151C29.0682 70.4503 31.1726 72.5215 33.7742 72.5215H56.1598V77.7276H49.7656C49.3493 77.7276 48.9677 77.9766 48.7943 78.3501L45.9499 84.7899C45.8111 85.1068 45.8458 85.469 46.0308 85.7633C46.2274 86.0575 46.5511 86.2273 46.9096 86.2273H78.5453C78.9038 86.2273 79.2276 86.0575 79.4241 85.7633C79.6207 85.469 79.6554 85.1068 79.5051 84.7899L76.6606 78.3501C76.4987 77.9766 76.1172 77.7276 75.6893 77.7276H69.2836V72.5215H91.6691C94.2592 72.5215 96.3636 70.4616 96.3636 67.9151C96.3636 52.2174 96.3636 40.3224 96.3636 23.5382C96.3752 20.9917 94.2823 18.9318 91.6922 18.9318ZM76.9497 84.1561H48.5052L50.4362 79.7761H75.0071L76.9497 84.1561ZM31.1726 23.5382C31.1726 22.1348 32.3405 20.9917 33.7742 20.9917H91.6922C93.126 20.9917 94.2823 22.1348 94.2823 23.5382V60.2417H77.8747V43.7291C80.3838 41.9522 81.8754 39.1227 81.8754 36.0443C81.8754 32.151 79.4819 28.6991 75.7818 27.2504C75.4581 27.1259 75.0881 27.1598 74.799 27.3522C74.5099 27.5446 74.3365 27.8615 74.3365 28.2011V34.7088H70.0351V28.2124C70.0351 27.8729 69.8617 27.556 69.5726 27.3636C69.2836 27.1712 68.9135 27.1259 68.5898 27.2617C64.8897 28.7104 62.4962 32.1623 62.4962 36.0556C62.4962 39.134 63.9762 41.9635 66.4969 43.7404V60.2417H55.8592V50.1462C56.2754 50.0896 56.6107 49.8067 56.7264 49.4106L58.5764 42.5294C58.6342 42.337 58.6227 42.1219 58.5533 41.9295L53.8126 28.4274C53.6738 28.0087 53.2691 27.737 52.8182 27.737H49.4765C49.0256 27.737 48.6324 28.02 48.4821 28.4274L43.7182 41.9182C43.6489 42.1106 43.6489 42.3143 43.6951 42.5181L45.5452 49.3993C45.6608 49.7954 45.9961 50.0783 46.4124 50.1349V60.2304H31.1726V23.5382ZM68.1273 42.3143C65.9303 40.9562 64.6238 38.6134 64.6238 36.0443C64.6238 33.5317 65.8841 31.2569 67.9423 29.8987V35.7274C67.9423 36.2933 68.4048 36.7573 68.9945 36.7573H75.4003C75.9784 36.7573 76.4525 36.3046 76.4525 35.7274V29.9101C78.5107 31.2682 79.771 33.5431 79.771 36.0556C79.771 38.6134 78.4644 40.9675 76.2675 42.3257C75.9668 42.5181 75.7818 42.8463 75.7818 43.1971V60.2417H68.6129V43.1858C68.6129 42.835 68.4279 42.5067 68.1273 42.3143ZM54.911 48.0977H54.8416C54.8416 48.0977 54.8301 48.0864 54.8185 48.0864H47.453L47.4415 48.0977H47.3721L45.8111 42.2917L50.2281 29.7856H52.0666L56.4836 42.2917L54.911 48.0977ZM48.5168 50.1575H53.7779V60.2304H48.5168V50.1575ZM67.1907 77.7163H58.2527V72.5215H67.1907V77.7163ZM94.2823 67.9151C94.2823 69.3185 93.1145 70.4616 91.6922 70.4616C73.5618 70.4616 52.1013 70.4616 33.7742 70.4616C32.3405 70.4616 31.1726 69.3185 31.1726 67.9151V62.3015C74.0359 62.3015 61.3862 62.3015 94.2823 62.3015V67.9151V67.9151Z" fill="#FFAD01"/>
</svg>
