<svg width="87" height="87" viewBox="0 0 87 87" fill="none" xmlns="http://www.w3.org/2000/svg">
<circle cx="43.5" cy="43.5" r="43.5" fill="#FF920F"/>
<path d="M68.5479 57.0832H67.8174V28.8621C67.8174 28.0439 67.1681 27.3729 66.3564 27.3729H51.3856C52.567 25.8285 53.2434 23.9165 53.2434 21.9125C53.2434 18.7503 51.566 15.7903 48.8785 14.1999C48.4275 13.9334 47.8684 13.9334 47.4175 14.1999C46.9665 14.4665 46.687 14.9537 46.687 15.4869V20.4233H42.313V15.4961C42.313 14.9629 42.0334 14.4757 41.5825 14.2091C41.1315 13.9425 40.5724 13.9425 40.1214 14.2091C37.4249 15.7994 35.7565 18.7594 35.7565 21.9217C35.7565 23.9257 36.4419 25.8377 37.6143 27.3821H22.6435C21.8408 27.3821 21.1825 28.0439 21.1825 28.8713V57.0924H20.461C19.6493 57.0832 19 57.7543 19 58.5724V60.0616C19 63.3342 21.6154 66 24.826 66H64.1739C67.3845 66 69.9999 63.3342 69.9999 60.0616V58.5724C70.0089 57.7543 69.3506 57.0832 68.5479 57.0832ZM39.4 19.0536V21.9125C39.4 22.7306 40.0493 23.4017 40.861 23.4017H48.148C48.9506 23.4017 49.609 22.7398 49.609 21.9125V19.0536C50.0779 19.9177 50.3395 20.9013 50.3395 21.9125C50.3395 24.0176 49.2212 25.9848 47.4175 27.0511C46.9665 27.3177 46.696 27.8049 46.696 28.3381V44.1953C46.696 45.4271 45.7129 46.4198 44.5135 46.4198C43.305 46.4198 42.331 45.4179 42.331 44.1953V28.3473C42.331 27.8141 42.0514 27.3269 41.6095 27.0603C39.8148 26.0032 38.6875 24.0268 38.6875 21.9217C38.6785 20.9013 38.931 19.9177 39.4 19.0536ZM24.1045 30.3513H39.409V44.2044C39.409 47.0725 41.6997 49.4074 44.5135 49.4074C47.3273 49.4074 49.618 47.0725 49.618 44.2044V30.3513H64.9044V57.0924H24.1045V30.3513ZM64.1739 63.0308H24.826C23.2207 63.0308 21.913 61.6979 21.913 60.0616H67.0869C67.0959 61.6979 65.7882 63.0308 64.1739 63.0308Z" fill="white"/>
</svg>
